<svg xmlns="http://www.w3.org/2000/svg" xmlns:xlink="http://www.w3.org/1999/xlink" xml:space="preserve" version="1.1" style="shape-rendering:geometricPrecision;text-rendering:geometricPrecision;image-rendering:optimizeQuality;" viewBox="0 0 219 262.5" x="0px" y="0px" fill-rule="evenodd" clip-rule="evenodd"><defs><style type="text/css">
   
    .fil0 {fill:black}
   
  </style></defs><g><path class="fil0" d="M82 73c-9,-7 -27,-15 -30,-25 -2,-8 8,-12 17,2 5,7 10,15 18,19 9,4 17,-2 17,-11 1,-16 15,-15 17,-6 1,4 -1,11 5,12 11,3 16,-17 19,-25 1,-5 10,-1 5,4 -6,6 -16,21 -8,28 7,5 18,-20 30,-25 6,-3 13,0 12,6 0,14 -33,25 -29,34 2,5 12,2 15,0 5,-2 9,-4 15,-5 5,-1 8,0 1,3 -4,3 -10,4 -14,5 -5,1 -14,4 -14,11 1,14 34,7 43,6 26,-1 21,19 0,13 -10,-2 -21,-7 -31,-9 -6,-1 -14,-2 -17,5 -2,6 16,15 21,17 6,3 13,6 20,9 21,10 23,21 10,18 -14,-3 -26,-19 -39,-27 -5,-4 -13,-8 -18,-3 -9,9 3,20 9,26 17,15 14,25 5,18 -5,-4 -8,-10 -11,-16 -2,-5 -12,-25 -19,-21 -4,2 -3,8 -2,11 1,8 11,25 14,39 8,37 -23,28 -21,-3 1,-9 3,-23 3,-30 0,-17 -12,-18 -14,-1 -5,29 -37,27 -12,-9 6,-10 -5,-14 -10,-5 -1,2 -5,10 -8,8 -1,0 1,-4 2,-5 3,-3 10,-12 6,-16 -8,-9 -31,24 -47,24 -9,0 -11,-7 -1,-13 10,-7 42,-10 38,-25 -1,-4 -6,-7 -13,-6 -4,1 -6,-4 0,-3 11,2 14,-6 11,-10 -6,-13 -46,-6 -67,-14 -18,-6 -10,-31 10,-23 19,9 42,37 63,28 6,-2 3,-7 -1,-10z"/><path class="fil0" d="M112 37c30,-27 -10,-55 -10,-22 0,9 7,17 10,22z"/></g><text x="0" y="225" fill="#000000" font-size="5px" font-weight="bold" font-family="'Helvetica Neue', Helvetica, Arial-Unicode, Arial, Sans-serif">Created by kareemovic2000</text><text x="0" y="230" fill="#000000" font-size="5px" font-weight="bold" font-family="'Helvetica Neue', Helvetica, Arial-Unicode, Arial, Sans-serif">from the Noun Project</text></svg>