<svg xmlns="http://www.w3.org/2000/svg" xmlns:xlink="http://www.w3.org/1999/xlink" viewBox="0 0 100 125" version="1.1" x="0px" y="0px"><title>magn_gls-5</title><desc>Created with Sketch.</desc><g stroke="none" stroke-width="1" fill="none" fill-rule="evenodd"><path d="M19.1862312,80.7742068 C22.4032312,80.7742068 22.4092312,75.7742068 19.1862312,75.7742068 C15.9692312,75.7742068 15.9632312,80.7742068 19.1862312,80.7742068 M22.4362312,28.0242068 C25.6532312,28.0242068 25.6592312,23.0242068 22.4362312,23.0242068 C19.2192312,23.0242068 19.2132312,28.0242068 22.4362312,28.0242068 M83.6872312,61.6492068 C86.1002312,61.6492068 86.1042312,57.8992068 83.6872312,57.8992068 C81.2742312,57.8992068 81.2702312,61.6492068 83.6872312,61.6492068 M20.0602312,35.2072068 C17.2262312,33.5202068 15.5132312,30.0392068 12.3892312,28.7512068 C10.4182312,27.9392068 7.46023118,28.3032068 7.81523118,31.1862068 C7.86323118,31.5752068 7.95323118,31.9332068 8.08023118,32.2612068 C9.64123118,36.2882068 16.7812312,35.9442068 20.0602312,35.2072068 M82.7732312,27.6292068 C82.8812312,27.5362068 82.9572312,27.4042068 83.0112312,27.2482068 C83.3352312,26.3292068 82.5402312,25.3692068 81.5662312,25.4122068 C81.3492312,25.4212068 81.1522312,25.4642068 80.9902312,25.5642068 C80.0982312,26.1142068 79.4402312,27.0692068 78.7522312,27.9092068 C78.5662312,28.1362068 78.4902312,28.6332068 78.6132312,28.8832068 C78.6662312,28.9912068 78.7752312,29.0702068 78.9172312,29.1452068 C79.3302312,29.3632068 79.8262312,29.3602068 80.2412312,29.1472068 C81.1292312,28.6902068 82.0412312,28.2642068 82.7732312,27.6292068 M85.7072312,74.4432068 C86.8542312,75.8912068 88.2722312,76.9662068 89.8452312,77.8532068 C90.7672312,78.3732068 91.8032312,77.3532068 91.2742312,76.4372068 C90.8122312,75.6372068 90.2922312,74.8942068 89.6662312,74.2532068 C88.9802312,73.5502068 87.9322312,73.2012068 86.9162312,72.8192068 C86.3752312,72.6162068 85.7722312,72.8902068 85.5692312,73.4312068 C85.5672312,73.4362068 85.5652312,73.4422068 85.5632312,73.4472068 C85.4382312,73.7812068 85.4852312,74.1622068 85.7072312,74.4432068 M68.3122312,5.46620682 C67.3272312,7.03020682 66.7842312,8.72420682 66.4712312,10.5022068 C66.2872312,11.5442068 67.5932312,12.1832068 68.2812312,11.3792068 C68.8822312,10.6782068 69.4102312,9.94020682 69.8062312,9.13720682 C70.2412312,8.25620682 70.2222312,7.15220682 70.2452312,6.06720682 C70.2572312,5.48920682 69.7982312,5.01120682 69.2202312,5.00020682 L69.2032312,5.00020682 C68.8462312,4.99320682 68.5022312,5.16420682 68.3122312,5.46620682 M41.5442312,94.5192068 C41.4722312,94.3622068 41.4352312,94.1852068 41.4052312,94.0132068 C41.0072312,91.6972068 41.6622312,89.3852068 42.0442312,87.1112068 C42.5042312,84.3702068 43.1362312,81.6582068 43.9362312,78.9962068 C44.1232312,78.3732068 44.3212312,77.7112068 44.1512312,77.0832068 C43.9812312,76.4552068 43.2792312,75.9252068 42.6852312,76.1892068 C42.3362312,76.3442068 42.0932312,76.7312068 41.7132312,76.7672068 C40.5712312,76.8772068 40.9502312,74.1872068 39.8092312,74.3112068 C39.0692312,74.3912068 39.1802312,75.5502068 38.6992312,76.1172068 C38.1772312,76.7322068 37.1972312,76.4452068 36.4342312,76.1852068 C33.9422312,75.3332068 33.8262312,78.0502068 33.0122312,79.6342068 C32.0692312,81.4682068 30.7452312,83.0882068 29.0982312,84.3362068 C27.2982312,85.7012068 28.5722312,80.4772068 28.8822312,79.7252068 C29.7542312,77.6052068 31.0082312,75.5732068 30.9412312,73.1992068 C30.9262312,72.6822068 30.8382312,72.1302068 30.4862312,71.7502068 C29.0452312,70.1972068 25.9472312,74.3332068 24.8262312,74.9912068 C24.6762312,75.0802068 24.5052312,75.1662068 24.3352312,75.1292068 C24.0122312,75.0582068 23.9432312,74.6292068 23.9812312,74.2982068 C24.1862312,72.5292068 23.0112312,73.9182068 22.2262312,73.4072068 C21.9962312,73.2562068 21.9632312,72.9352068 21.8122312,72.7052068 C21.5272312,72.2742068 20.8892312,72.2572068 20.4022312,72.4312068 C19.9162312,72.6062068 19.4782312,72.9222068 18.9692312,73.0112068 C17.3682312,73.2892068 17.7322312,71.7022068 18.3992312,70.9752068 C19.8642312,69.3802068 21.3562312,67.8102068 22.8732312,66.2642068 C23.4482312,65.6782068 26.0422312,63.3762068 23.6722312,63.0302068 C23.1962312,62.9602068 22.6542312,63.0332068 22.3472312,62.5672068 C22.1782312,62.3102068 22.1622312,61.9802068 22.2542312,61.6862068 C22.4622312,61.0192068 23.0412312,60.6242068 23.4382312,60.0902068 C24.4192312,58.7692068 19.9942312,58.9222068 19.9682312,58.8752068 C19.9172312,58.7842068 19.8942312,58.6812068 19.8582312,58.5832068 C19.6212312,57.9492068 18.8432312,57.6632068 18.1722312,57.7512068 C17.5012312,57.8392068 16.9052312,58.2062068 16.3132312,58.5342068 C14.3742312,59.6062068 12.2432312,60.3282068 10.0532312,60.6572068 C9.34223118,60.7632068 8.58623118,60.8232068 7.93023118,60.5292068 C6.50023118,59.8892068 6.82223118,57.4362068 8.19323118,56.8682068 C11.6732312,55.4262068 15.3092312,54.4262068 19.0812312,54.2062068 C19.6392312,54.1732068 21.6352312,54.1332068 21.7642312,53.3202068 C21.8902312,52.5252068 20.2612312,52.1972068 19.7202312,51.9952068 C18.4562312,51.5242068 17.3242312,50.6922068 15.8162312,50.3842068 C14.2102312,50.0552068 11.8372312,48.2612068 14.4362312,47.2572068 C15.1922312,46.9662068 16.0392312,46.9002068 16.8102312,47.1502068 C18.6822312,47.7592068 21.9292312,46.0652068 18.9042312,44.7112068 C17.2582312,43.9742068 15.6572312,43.1882068 14.0332312,42.3862068 C13.7302312,42.2362068 13.3742312,41.9862068 13.4462312,41.6552068 C13.4922312,41.4432068 13.7042312,41.3132068 13.9002312,41.2202068 C15.8312312,40.3072068 17.9942312,40.7812068 20.0382312,40.8182068 C22.7922312,40.8672068 25.5462312,40.8932068 28.3002312,40.9302068 C28.6472312,40.9352068 29.0062312,40.9382068 29.3252312,40.8032068 C29.6452312,40.6682068 29.9172312,40.3562068 29.8932312,40.0092068 C29.8312312,39.1592068 27.8852312,39.2142068 27.3342312,38.9522068 C26.7652312,38.6812068 26.2732312,38.1592068 26.2172312,37.5312068 C26.1952312,37.2892068 26.2382312,37.0462068 26.2252312,36.8032068 C26.1722312,35.8612068 25.3062312,35.1792068 24.4512312,34.7802068 C23.5962312,34.3812068 22.6382312,34.1062068 21.9992312,33.4112068 C21.8802312,33.2812068 21.7702312,33.1302068 21.7452312,32.9552068 C21.7032312,32.6572068 21.9242312,32.3732068 22.1952312,32.2432068 C22.8712312,31.9192068 25.0862312,32.3392068 25.4432312,31.7772068 C25.8102312,31.2002068 26.1632312,30.3972068 25.6992312,29.8952068 C25.5282312,29.7112068 25.2572312,29.5872068 25.2112312,29.3402068 C25.1552312,29.0372068 25.4852312,28.8052068 25.7822312,28.7212068 C27.4182312,28.2582068 29.0262312,29.5742068 30.7242312,29.6772068 C30.8632312,29.6852068 31.0102312,29.6842068 31.1342312,29.6202068 C32.1022312,29.1212068 28.7242312,23.2082068 28.2412312,22.4442068 C28.0522312,22.1442068 27.9472312,21.7102068 28.2042312,21.4662068 C28.2962312,21.3782068 28.4222312,21.3322068 28.5462312,21.3032068 C29.7922312,21.0112068 30.9092312,22.1102068 31.6242312,23.1722068 C32.3392312,24.2342068 33.0732312,25.4662068 34.4372312,25.7192068 C34.7552312,25.7782068 35.0892312,25.7842068 35.3842312,25.9172068 C35.8712312,26.1362068 36.1462312,26.6462068 36.3872312,27.1222068 C36.6942312,27.7312068 38.4472312,32.1132068 38.8732312,29.7582068 C38.9252312,29.4732068 38.9722312,29.1612068 39.1832312,28.9632068 C39.4472312,28.7172068 39.8642312,28.7452068 40.2082312,28.8542068 C40.5512312,28.9642068 40.8842312,29.1402068 41.2452312,29.1422068 C42.6842312,29.1482068 40.7252312,26.0922068 40.4642312,25.6642068 C39.2732312,23.7182068 37.7162312,21.6742068 37.7512312,19.2862068 C37.7592312,18.7762068 37.8552312,18.2472068 38.1602312,17.8382068 C38.4662312,17.4302068 39.0192312,17.1772068 39.5022312,17.3412068 C40.1102312,17.5482068 40.3512312,18.2592068 40.5592312,18.8672068 C40.8402312,19.6892068 41.2052312,20.4822068 41.6482312,21.2292068 C41.9182312,21.6852068 42.4452312,22.1832068 42.8952312,21.9042068 C43.1312312,21.7582068 43.2492312,21.4272068 43.5222312,21.3772068 C43.9962312,21.2912068 44.0932312,22.0352068 44.4292312,22.3802068 C44.8572312,22.8192068 45.6042312,22.5102068 46.0722312,22.1152068 C46.5412312,21.7202068 47.0642312,21.2192068 47.6642312,21.3432068 C48.3682312,21.4882068 48.7032312,22.4282068 49.4142312,22.5352068 C49.8432312,22.5992068 50.2632312,22.3142068 50.4912312,21.9442068 C50.8512312,21.3592068 51.0122312,20.4162068 51.0682312,19.7332068 C51.3532312,16.2872068 51.6392312,12.8412068 51.9242312,9.39520682 C51.9952312,8.53220682 52.0792312,7.62720682 52.6892312,6.95520682 C52.9612312,6.65420682 53.3382312,6.44620682 53.7432312,6.42820682 C54.6072312,6.39120682 55.0532312,7.11720682 55.3532312,7.79920682 C57.2002312,11.9962068 55.9112312,16.9482068 55.3172312,21.2852068 C55.1922312,22.1972068 55.0762312,23.1882068 56.0752312,23.8672068 C56.3502312,24.0542068 56.6712312,24.1722068 57.0022312,24.2082068 C58.1702312,24.3382068 59.1872312,23.6732068 59.9422312,22.8492068 C61.6042312,21.0352068 62.1912312,18.4822068 63.5892312,16.4572068 C63.7052312,16.2892068 63.8472312,16.1122068 64.0482312,16.0802068 C64.3132312,16.0372068 64.5562312,16.2822068 64.6102312,16.5462068 C64.6642312,16.8092068 64.5822312,17.0802068 64.5002312,17.3362068 L62.1802312,24.6362068 C62.0572312,25.0212068 62.0022312,25.4302068 62.0632312,25.8302068 C62.3762312,27.8782068 64.6832312,27.0002068 65.6802312,26.3252068 C71.0502312,22.6882068 74.6832312,16.8282068 80.2542312,13.5082068 C80.4662312,13.3812068 80.7512312,13.2632068 80.9412312,13.4202068 C81.0592312,13.5172068 81.0882312,13.6862068 81.0942312,13.8392068 C81.1492312,15.0802068 80.3632312,16.1822068 79.6132312,17.1732068 C78.0982312,19.1762068 76.5822312,21.1792068 75.0662312,23.1832068 C74.0262312,24.5582068 71.4992312,26.6562068 71.5072312,28.4932068 C71.5092312,29.0572068 71.9032312,29.6612068 72.4662312,29.6902068 C72.9782312,29.7162068 74.3832312,28.9012068 74.2332312,30.1272068 C74.1962312,30.4292068 74.0122312,30.6892068 73.8392312,30.9402068 C72.8762312,32.3392068 72.1112312,33.8742068 71.5722312,35.4852068 C71.3472312,36.1592068 71.1722312,36.9572068 71.8172312,37.4842068 C72.0792312,37.6992068 72.4192312,37.7922068 72.7582312,37.8012068 C74.3852312,37.8412068 76.1192312,36.9922068 77.7242312,36.7392068 C79.6582312,36.4342068 81.4832312,35.7202068 83.2892312,34.9882068 C84.0392312,34.6832068 87.4112312,32.5812068 87.5632312,34.5052068 C87.7112312,36.3842068 83.3132312,38.5602068 81.9622312,39.3482068 C80.9482312,39.9392068 79.8502312,40.4852068 78.9832312,41.2892068 C77.9402312,42.2552068 77.9612312,43.0732068 77.3872312,44.2582068 C76.8522312,45.3612068 75.3622312,45.9652068 75.2872312,47.1902068 C75.0862312,50.5122068 80.4382312,51.3162068 82.7452312,51.8452068 C84.4242312,52.2302068 86.6682312,52.1992068 87.9252312,53.5672068 C88.0432312,53.6962068 88.1552312,53.8472068 88.1652312,54.0222068 C88.1912312,54.4692068 87.6102312,54.6572068 87.1642312,54.7002068 C84.0052312,55.0002068 80.9092312,54.9792068 78.1472312,56.7392068 C77.8412312,56.9342068 77.5092312,57.2152068 77.5462312,57.5772068 C77.6352312,58.4582068 79.5202312,58.0852068 79.1642312,59.4932068 C79.0872312,59.7952068 78.9102312,60.0642068 78.6862312,60.2812068 C77.9422312,61.0022068 78.2632312,62.0822068 78.9112312,62.7072068 C79.4262312,63.2032068 80.1112312,63.4762068 80.7752312,63.7452068 C84.6062312,65.2922068 88.3462312,67.0632068 91.9712312,69.0472068 C92.3432312,69.2502068 92.7332312,69.4752068 92.9362312,69.8482068 C93.1382312,70.2222068 93.0512312,70.7842068 92.6552312,70.9382068 C92.4082312,71.0352068 92.1312312,70.9492068 91.8802312,70.8612068 C86.8002312,69.0942068 81.8092312,67.0882068 76.8992312,64.8952068 C76.3302312,64.6402068 75.6442312,64.3882068 75.1162312,64.7192068 C73.7862312,65.5532068 78.9972312,68.8762068 79.5902312,69.3422068 C79.9702312,69.6412068 80.3832312,70.0022068 80.3992312,70.4852068 C80.4132312,70.8992068 80.1252312,71.2602068 80.0322312,71.6642068 C79.7712312,72.7952068 81.0082312,73.6382068 82.0102312,74.2242068 C83.0122312,74.8092068 84.0762312,76.0182068 83.4122312,76.9702068 C83.2042312,77.2692068 82.8502312,77.4702068 82.7362312,77.8162068 C82.5732312,78.3082068 82.9732312,78.7922068 83.3352312,79.1642068 C84.7202312,80.5882068 86.0092312,82.1062068 87.1892312,83.7042068 C88.1932312,85.0632068 86.4302312,86.7372068 85.1332312,85.6532068 L84.9982312,85.5402068 C84.2412312,84.9072068 83.6052312,84.1502068 83.0542312,83.3332068 C81.3892312,80.8662068 79.3732312,78.6372068 77.0882312,76.7302068 C76.4472312,76.1962068 75.5312312,75.6702068 74.8402312,76.1382068 C74.5332312,76.3472068 74.3652312,76.7102068 74.2812312,77.0722068 C73.7692312,79.2702068 75.7692312,81.2332068 76.5782312,83.2672068 C76.7462312,83.6902068 76.6902312,84.1892068 76.3792312,84.5202068 C75.8012312,85.1362068 74.9012312,84.6512068 74.3542312,84.1042068 C72.1692312,81.9162068 71.3582312,78.6972068 69.1132312,76.5732068 C66.7952312,74.3802068 62.7332312,76.5672068 62.2752312,79.6242068 C61.9602312,81.7202068 63.6462312,83.5422068 64.2502312,85.5732068 C64.6322312,86.8602068 64.5672312,88.2762068 64.0662312,89.5222068 C63.9852312,89.7242068 63.8862312,89.9302068 63.7132312,90.0612068 C63.3592312,90.3282068 62.8182312,90.1722068 62.5222312,89.8412068 C62.2272312,89.5112068 62.1142312,89.0602068 62.0112312,88.6282068 L60.2272312,81.1472068 C60.1332312,80.7492068 59.7972312,80.4272068 59.3892312,80.4162068 C58.8792312,80.4012068 58.9072312,80.9462068 58.5872312,81.1032068 C58.2482312,81.2712068 57.9162312,80.8702068 57.7472312,80.5302068 C57.3782312,79.7862068 56.3642312,76.9132068 55.1162312,78.1612068 C54.9662312,78.3112068 54.8772312,78.5202068 54.7012312,78.6362068 C53.8652312,79.1872068 52.9612312,77.0472068 52.1582312,77.6462068 C51.9312312,77.8152068 51.8862312,78.1302068 51.7602312,78.3832068 C51.4562312,78.9952068 50.7142312,79.2112068 50.0732312,79.4452068 C48.0152312,80.1962068 47.7702312,83.3422068 47.0682312,85.1282068 C45.9762312,87.9082068 44.8862312,90.6892068 43.7982312,93.4702068 C43.6202312,93.9272068 43.4282312,94.4032068 43.0532312,94.7202068 C42.6782312,95.0362068 42.0622312,95.1232068 41.7172312,94.7752068 C41.6432312,94.7012068 41.5872312,94.6142068 41.5442312,94.5192068" fill="#000000"/></g><text x="0" y="115" fill="#000000" font-size="5px" font-weight="bold" font-family="'Helvetica Neue', Helvetica, Arial-Unicode, Arial, Sans-serif">Created by Icon Island</text><text x="0" y="120" fill="#000000" font-size="5px" font-weight="bold" font-family="'Helvetica Neue', Helvetica, Arial-Unicode, Arial, Sans-serif">from the Noun Project</text></svg>