<svg width="91" height="16" fill="none" xmlns="http://www.w3.org/2000/svg">
  <path d="M83 0l1.7961 5.5279h5.8124l-4.7023 3.4164 1.7961 5.5278L83 11.0557l-4.7023 3.4164 1.7961-5.5278-4.7023-3.4164h5.8124L83 0zM58 0l1.7961 5.5279h5.8124l-4.7023 3.4164 1.7961 5.5278L58 11.0557l-4.7023 3.4164 1.7961-5.5278-4.7023-3.4164h5.8124L58 0zM8 0l1.7961 5.5279h5.8124l-4.7023 3.4164 1.7961 5.5278L8 11.0557l-4.7023 3.4164 1.7961-5.5278L.3915 5.5279H6.204L8 0zM33 0l1.7961 5.5279h5.8124l-4.7023 3.4164 1.7961 5.5278L33 11.0557l-4.7023 3.4164 1.7961-5.5278-4.7023-3.4164h5.8124L33 0z" fill="#FF5235"/>
</svg>
