<svg width="716" height="771" fill="none" xmlns="http://www.w3.org/2000/svg">
  <path d="M33.1149 274.094c2.42 0 4.84-1.817 4.84-4.844v-68.418c0-2.422-1.815-4.844-4.84-4.844-2.42 0-4.84 1.817-4.84 4.844v69.024c0 2.421 2.42 4.238 4.84 4.238zM37.3498 314.66v-22.402c0-2.422-1.815-4.844-4.84-4.844-2.42 0-4.84 1.816-4.84 4.844v22.402c0 2.422 1.815 4.844 4.84 4.844s4.84-2.422 4.84-4.844zM637.51 511.438c-2.42 0-4.84 1.816-4.84 4.843v69.024c0 2.422 1.815 4.843 4.84 4.843 2.42 0 4.84-1.816 4.84-4.843v-69.629c0-2.422-1.815-4.238-4.84-4.238zM637.51 602.863c-2.42 0-4.84 1.817-4.84 4.844v22.402c0 2.422 1.815 4.844 4.84 4.844 2.42 0 4.84-1.816 4.84-4.844v-22.402c0-2.422-1.815-4.844-4.84-4.844zM645.98 359.465c-1.815-1.817-4.84-1.817-6.655 0-1.815 1.816-1.815 4.844 0 6.66l10.285 10.293c.605.605 1.815 1.211 3.025 1.211s2.42-.606 3.025-1.211c1.815-1.816 1.815-4.844 0-6.66l-9.68-10.293zM679.86 393.977c-1.815-1.817-4.84-1.817-6.655 0-1.815 1.816-1.815 4.843 0 6.66l10.285 10.293c.605.605 1.815 1.211 3.025 1.211s2.42-.606 3.025-1.211c1.815-1.817 1.815-4.844 0-6.661l-9.68-10.292zM650.215 393.977l-10.285 10.292c-1.815 1.817-1.815 4.844 0 6.661.605.605 1.815 1.211 3.025 1.211s2.42-.606 3.025-1.211l10.285-10.293c1.815-1.817 1.815-4.844 0-6.66-1.815-1.817-4.235-1.817-6.05 0zM690.75 359.465c-1.815-1.817-4.84-1.817-6.655 0l-10.285 10.293c-1.815 1.816-1.815 4.844 0 6.66.605.605 1.815 1.211 3.025 1.211s2.42-.606 3.025-1.211l10.285-10.293c1.815-1.816 1.815-4.844.605-6.66zM498.36 711.242c-1.815-1.816-4.84-1.816-6.655 0-1.815 1.817-1.815 4.844 0 6.66l10.285 10.293c.605.606 1.815 1.211 3.025 1.211s2.42-.605 3.025-1.211c1.815-1.816 1.815-4.843 0-6.66l-9.68-10.293zM532.24 745.754c-1.815-1.817-4.84-1.817-6.655 0-1.815 1.816-1.815 4.844 0 6.66l10.285 10.293c.605.606 1.815 1.211 3.025 1.211s2.42-.605 3.025-1.211c1.815-1.816 1.815-4.844 0-6.66l-9.68-10.293zM502.595 745.754l-10.285 10.293c-1.815 1.816-1.815 4.844 0 6.66.605.606 1.815 1.211 3.025 1.211s2.42-.605 3.025-1.211l10.285-10.293c1.815-1.816 1.815-4.844 0-6.66-1.815-1.817-4.235-1.817-6.05 0zM536.475 711.242l-10.285 10.293c-1.815 1.817-1.815 4.844 0 6.66.605.606 1.815 1.211 3.025 1.211s2.42-.605 3.025-1.211l10.285-10.293c1.815-1.816 1.815-4.843 0-6.66-1.815-1.816-4.235-1.816-6.05 0zM8.9148 504.777c-1.815-1.816-4.84-1.816-6.655 0-1.815 1.817-1.815 4.844 0 6.661l10.285 10.293c.605.605 1.815 1.21 3.025 1.21s2.42-.605 3.025-1.21c1.815-1.817 1.815-4.844 0-6.661l-9.68-10.293zM53.0797 555.637c1.815-1.817 1.815-4.844 0-6.66l-10.285-10.293c-1.815-1.817-4.84-1.817-6.655 0-1.815 1.816-1.815 4.843 0 6.66l10.285 10.293c.605.605 1.815 1.211 3.025 1.211 1.815 0 3.025-.606 3.63-1.211zM12.5448 538.684l-10.285 10.293c-1.815 1.816-1.815 4.843 0 6.66.605.605 1.815 1.211 3.025 1.211s2.42-.606 3.025-1.211l10.89-10.899c1.815-1.816 1.815-4.844 0-6.66-1.815-1.211-4.84-1.211-6.655.606zM46.4247 504.777l-10.285 10.293c-1.815 1.817-1.815 4.844 0 6.661.605.605 1.815 1.21 3.025 1.21s2.42-.605 3.025-1.21l10.285-10.293c1.815-1.817 1.815-4.844 0-6.661-1.21-1.816-4.235-1.816-6.05 0zM65.7848 61.5742c12.705 0 23.595-10.2929 23.595-23.6133 0-12.7148-10.285-23.6132-23.595-23.6132-12.705 0-23.595 10.2929-23.595 23.6132 0 13.3204 10.89 23.6133 23.595 23.6133zm0-37.539c7.865 0 13.915 6.6601 13.915 14.5312s-6.05 13.9258-13.915 13.9258c-7.865 0-14.52-6.0547-14.52-13.9258s6.655-14.5312 14.52-14.5312zM691.96 713.664c-12.705 0-23.595 10.293-23.595 23.613 0 12.715 10.285 23.614 23.595 23.614 12.705 0 23.595-10.293 23.595-23.614-.605-13.32-10.89-23.613-23.595-23.613zm0 37.539c-7.865 0-13.915-6.66-13.915-13.926 0-7.871 6.655-13.925 13.915-13.925 7.865 0 13.915 6.66 13.915 13.925 0 7.266-6.05 13.926-13.915 13.926zM609.075 194.777c-12.705 0-23.595 10.293-23.595 23.614 0 12.714 10.285 23.613 23.595 23.613 12.705 0 23.595-10.293 23.595-23.613 0-13.321-10.89-23.614-23.595-23.614zm0 37.539c-7.865 0-13.915-6.66-13.915-13.925 0-7.871 6.655-13.926 13.915-13.926 7.865 0 13.915 6.66 13.915 13.926.605 7.871-6.05 13.925-13.915 13.925zM642.35 5.871c0-2.4218-1.815-4.8437-4.84-4.8437h-82.885c-2.42 0-4.84 1.8164-4.84 4.8438 0 3.0273 2.42 4.2383 4.84 4.2383h82.885c3.025 0 4.84-1.8164 4.84-4.2383zM664.735 10.1094h26.62c2.42 0 4.84-1.8164 4.84-4.8438 0-3.0273-1.815-4.8437-4.84-4.8437h-26.62c-2.42 0-4.84 1.8164-4.84 4.8437 0 3.0274 2.42 4.8438 4.84 4.8438zM696.195 34.3281c0-2.4219-1.815-4.8437-4.84-4.8437h-58.08c-2.42 0-4.84 1.8164-4.84 4.8437 0 3.0274 1.815 4.8438 4.84 4.8438h58.08c3.025-.6055 4.84-2.4219 4.84-4.8438zM590.32 29.4844c-2.42 0-4.84 1.8164-4.84 4.8437 0 3.0274 1.815 4.8438 4.84 4.8438h18.755c2.42 0 4.84-1.8164 4.84-4.8438 0-3.0273-1.815-4.8437-4.84-4.8437H590.32zM189.205 760.891H106.32c-2.42 0-4.84 1.816-4.84 4.843 0 2.422 1.815 4.844 4.84 4.844h82.885c2.42 0 4.84-1.816 4.84-4.844 0-3.027-2.42-4.843-4.84-4.843zM79.0946 760.891h-26.62c-2.42 0-4.84 1.816-4.84 4.843 0 2.422 1.815 4.844 4.84 4.844h26.62c2.42 0 4.84-1.816 4.84-4.844 0-3.027-2.42-4.843-4.84-4.843zM47.6346 736.672c0 2.422 1.815 4.844 4.84 4.844H109.95c2.42 0 4.84-1.817 4.84-4.844 0-2.422-1.815-4.844-4.84-4.844H51.8696c-1.815.606-4.235 2.422-4.235 4.844zM153.51 741.516c2.42 0 4.84-1.817 4.84-4.844 0-2.422-1.815-4.844-4.84-4.844h-18.755c-2.42 0-4.84 1.817-4.84 4.844 0 2.422 1.815 4.844 4.84 4.844h18.755zM104.505 252.297c2.42 0 4.84-1.817 4.84-4.844C108.74 133.625 201.91 40.3828 315.65 40.3828c114.345 0 206.91 93.2422 206.91 207.0702v214.336c0 2.422 1.815 4.844 4.84 4.844 2.42 0 4.84-1.817 4.84-4.844v-213.73c0-119.278-96.8-216.1528-215.985-216.1528-119.185 0-215.985 96.8748-215.985 216.1528-.6053 2.421 1.21 4.238 4.235 4.238z" fill="#FF5033" style="mix-blend-mode:multiply"/>
  <path d="M527.4 522.941c-33.275 0-60.5-27.246-60.5-60.546V248.059c0-82.95-67.76-150.7621-150.645-150.7621S165.61 165.109 165.61 248.059V249.27c0 33.3-27.225 60.546-60.5 60.546-2.42 0-4.84 1.817-4.84 4.844 0 2.422 1.815 4.844 4.84 4.844 38.72 0 69.575-31.484 69.575-69.629V248.664c0-78.105 63.525-141.68 141.57-141.68 78.045 0 141.57 63.575 141.57 141.68V463c0 38.75 31.46 69.629 69.575 69.629 2.42 0 4.84-1.816 4.84-4.844-.605-2.422-2.42-4.844-4.84-4.844z" fill="#FF5033" style="mix-blend-mode:multiply"/>
  <path d="M527.4 490.246c-15.125 0-27.83-12.715-27.83-27.851V248.059c0-101.114-82.28-183.4574-183.315-183.4574S132.94 146.945 132.94 248.059V249.27c0 15.136-12.705 27.851-27.83 27.851-2.42 0-4.84 1.817-4.84 4.844s1.815 4.844 4.84 4.844c20.57 0 36.905-16.348 36.905-36.934V248.664c0-96.269 78.045-174.3749 174.24-174.3749 96.195 0 174.24 78.1059 174.24 174.3749V463c0 20.586 16.335 36.934 36.905 36.934 2.42 0 4.84-1.817 4.84-4.844-.605-3.028-2.42-4.844-4.84-4.844z" fill="#FF5033" style="mix-blend-mode:multiply"/>
  <path d="M363.445 243.82c-2.42 0-4.84 1.817-4.84 4.844v213.73c0 44.805 17.545 87.188 49.005 118.672 26.015 26.036 58.685 42.989 94.38 47.832h.605c2.42 0 4.235-1.816 4.235-4.238.605-2.422-1.21-4.844-3.63-4.844-33.88-4.843-64.735-19.98-89.54-45.41-30.25-30.273-46.585-70.234-46.585-112.617v-213.73c1.21-1.817-.605-4.239-3.63-4.239z" fill="#FF5033" style="mix-blend-mode:multiply"/>
  <path d="M517.72 588.332c-30.25-2.422-58.08-15.137-79.86-36.934-23.595-23.613-36.905-55.703-36.905-89.609V247.453c0-23.008-9.075-44.199-24.805-59.941-16.335-16.348-37.51-24.824-59.895-24.824-2.42 0-4.84 1.816-4.84 4.843 0 2.422 1.815 4.844 4.84 4.844 20.57 0 39.325 7.871 53.845 22.402 14.52 14.532 22.385 33.301 22.385 53.887V463c0 36.328 13.915 70.234 39.93 95.664 22.385 22.402 52.635 36.328 84.7 38.75h.605c2.42 0 4.235-1.816 4.84-4.238-.605-2.422-2.42-4.844-4.84-4.844z" fill="#FF5033" style="mix-blend-mode:multiply"/>
  <path d="M525.585 564.719h1.815c2.42 0 4.84-1.817 4.84-4.844 0-2.422-1.815-4.844-4.84-4.844h-1.815c-50.82 0-91.96-42.383-91.96-92.637V248.059c0-64.786-52.635-118.067-117.975-118.067-64.735 0-117.975 52.676-117.975 118.067v1.211c.605 51.464-41.745 93.847-93.17 93.847-2.42 0-4.8402 1.817-4.8402 4.844 0 2.422 1.8152 4.844 4.8402 4.844 56.87 0 102.85-46.016 102.85-102.93v-1.211c0-59.941 49.005-108.984 108.9-108.984s108.9 49.043 108.9 108.984V463c-.605 55.098 44.77 101.113 100.43 101.719z" fill="#FF5033" style="mix-blend-mode:multiply"/>
  <path d="M240.025 384.895c-36.3 36.328-84.095 56.308-135.52 56.308-2.42 0-4.8402 1.817-4.8402 4.844s1.8152 4.844 4.8402 4.844c53.845 0 104.06-21.192 142.175-58.731 38.115-38.144 58.685-88.398 58.685-142.285v-1.211c0-11.504-9.68-21.191-21.175-21.191-10.285 0-18.755 7.265-20.57 16.953v5.449c0 42.383-16.335 82.344-46.585 112.617-30.25 30.274-70.18 46.621-112.53 46.621-2.42 0-4.8402 1.817-4.8402 4.844 0 2.422 1.8152 4.844 4.8402 4.844 44.77 0 87.12-17.559 118.58-49.043 32.065-32.09 49.005-73.867 49.005-119.278v-4.238c1.21-5.449 6.05-9.082 11.495-9.082 6.655 0 12.1 5.449 12.1 12.11v1.21c.605 50.254-19.36 98.086-55.66 134.415zM169.24 641.613c7.26-1.211 13.915-2.422 21.175-4.238 6.655-1.816 13.915-3.027 21.175-5.449 7.26-1.817 13.915-4.239 20.57-6.055l19.965-7.266c2.42-1.21 3.63-3.632 2.42-6.054s-3.63-3.633-6.05-2.422l-19.965 7.266c-6.655 2.421-13.31 4.238-19.965 6.054-6.655 1.817-13.915 3.633-20.57 4.844-6.655 1.211-13.915 3.027-20.57 4.238-2.42.606-4.235 3.028-3.63 5.449.605 2.422 2.42 3.633 4.235 3.633h1.21zM288.425 642.824c1.815 3.028 4.235 5.45 6.655 7.871 2.42 2.422 4.235 5.45 6.655 7.872 2.42 2.421 4.84 5.449 7.26 7.871 2.42 2.422 4.84 4.843 7.26 7.265 7.26 7.266 14.52 13.926 21.78 19.981.605.605 1.815 1.211 3.025 1.211s2.42-.606 3.63-1.817c1.815-1.816 1.21-4.844-.605-6.66-7.26-6.055-14.52-12.715-21.175-19.375l-7.26-7.266c-2.42-2.421-4.84-4.843-6.655-7.265-2.42-2.422-4.235-4.844-6.655-7.871-1.815-2.422-4.235-5.449-6.05-7.871-1.815-2.422-4.235-5.45-6.05-7.871-1.815-2.422-3.63-5.45-5.445-8.477-1.21-1.816-4.235-2.422-6.05-1.211-1.815 1.211-2.42 4.238-1.21 6.055 1.815 3.027 3.63 5.449 6.05 8.476.605 3.633 3.025 6.055 4.84 9.082zM275.72 713.664c-9.68-9.687-18.755-19.98-27.225-30.273-1.21-1.211-3.025-1.817-4.84-1.211-17.545 5.449-35.09 10.293-53.24 13.32-2.42.605-4.235 3.027-3.63 5.449.605 2.422 3.025 4.238 5.445 3.633 16.94-3.027 34.485-7.871 51.425-12.715 7.865 10.293 16.94 19.981 26.015 29.063 7.865 7.871 16.335 15.742 24.805 23.007.605.606 1.815 1.211 3.025 1.211s2.42-.605 3.63-1.816c1.815-1.816 1.21-4.844-.605-6.66-8.47-7.266-16.94-15.137-24.805-23.008z" fill="#FF5033" style="mix-blend-mode:multiply"/>
  <path d="M351.95 733.645c-18.755-12.11-36.905-26.641-53.24-42.989-13.915-13.925-27.225-29.668-38.115-46.015-1.21-1.817-3.63-2.422-5.445-1.817-30.855 11.504-62.92 19.981-96.195 24.219-2.42.605-4.235 2.422-3.63 4.844.605 2.422 2.42 4.238 4.84 4.238 32.67-4.238 64.13-12.109 94.985-23.613 10.89 15.742 23.595 30.879 37.51 44.199 16.94 16.953 35.09 31.484 54.45 44.199.605.606 1.815.606 2.42.606 1.21 0 3.025-.606 3.63-1.817 1.815-1.816 1.21-4.238-1.21-6.054z" fill="#FF5033" style="mix-blend-mode:multiply"/>
  <path d="M433.02 702.16c-32.67-12.715-62.315-32.09-87.725-57.519-24.2-24.219-43.56-52.676-56.265-84.766-.605-1.211-1.21-2.422-3.025-2.422-1.21-.605-2.42 0-3.63.606-49.61 29.062-104.665 44.804-162.745 47.226-2.42 0-4.235 2.422-4.235 4.844s2.42 4.238 4.84 4.238c58.08-2.422 112.53-17.558 162.745-46.015 13.31 30.878 32.065 58.73 56.265 82.949 26.015 26.035 56.87 46.621 90.75 59.941.605 0 1.21.606 1.815.606 1.815 0 3.63-1.211 4.235-3.028.605-3.027-.605-6.054-3.025-6.66z" fill="#FF5033" style="mix-blend-mode:multiply"/>
  <path d="M463.27 677.941c-35.09-10.293-67.76-30.273-94.38-56.308-30.855-30.879-52.03-69.629-61.105-112.012-.605-1.816-1.21-3.027-3.025-3.633-1.21-.605-3.025-.605-4.235.606-55.055 42.383-121 64.785-190.575 65.996-2.42 0-4.235 1.816-4.235 4.844 0 2.421 2.42 4.238 4.84 4.238 68.97-1.211 134.915-23.008 189.97-63.574 10.285 41.172 31.46 79.316 61.71 110.195 27.225 27.246 61.71 47.832 98.01 58.731h1.21c1.815 0 3.63-1.211 4.235-3.028 1.21-3.027 0-5.449-2.42-6.055z" fill="#FF5033" style="mix-blend-mode:multiply"/>
  <path d="M486.865 650.09c-35.695-7.871-68.97-25.43-94.985-52.07-36.3-36.329-56.265-84.161-56.265-135.625v-24.219-1.211c-.605-2.422-2.42-3.633-4.84-3.633-1.815 0-3.025 1.211-3.63 2.422-5.445 6.66-11.495 12.715-17.545 18.769-54.45 54.493-126.445 84.766-203.28 84.766-2.42 0-4.84 1.816-4.235 4.844 0 2.422 1.815 4.238 4.84 4.238 79.255-.605 153.67-31.484 209.935-87.793 3.63-3.633 7.26-7.266 10.285-10.898v12.109c0 53.887 21.175 104.141 58.685 142.285 27.83 27.852 62.315 46.621 99.825 54.492h1.21c1.815 0 4.235-1.21 4.235-3.632 0-1.817-1.815-4.239-4.235-4.844z" fill="#FF5033" style="mix-blend-mode:multiply"/>
  <path d="M292.66 437.57c19.36-19.375 35.695-41.777 48.4-65.996 1.21-2.422 0-4.844-1.815-6.054-2.42-1.211-4.84 0-6.05 1.816-12.1 23.613-27.83 44.805-46.585 64.18-48.4 48.437-113.135 75.683-182.105 75.683-2.42 0-4.8402 1.817-4.8402 4.844 0 2.422 1.8152 4.844 4.8402 4.844 71.39-1.211 137.94-28.457 188.155-79.317z" fill="#FF5033" style="mix-blend-mode:multiply"/>
  <path d="M284.19 193.566c-29.645 0-53.845 24.219-53.845 53.887 0 .606 0 1.211.605 1.817 0 33.906-13.31 65.39-36.905 89.003-23.595 23.614-55.66 36.934-89.54 36.934-2.42 0-4.8402 1.816-4.8402 4.844 0 3.027 1.8152 4.844 4.8402 4.844 36.3 0 70.18-13.926 95.59-39.961 25.41-25.43 39.93-59.336 39.93-95.664v-1.211c0-.606 0-1.211-.605-1.817.605-24.219 20.57-42.988 44.77-42.988 24.805 0 44.77 19.98 44.77 44.805v1.211c0 59.941-23.595 116.25-65.945 158.632-42.35 42.383-98.615 65.996-158.51 65.996-2.42 0-4.8402 1.817-4.8402 4.844 0 3.028 1.8152 4.844 4.8402 4.844 62.315 0 121-24.219 165.165-68.418 44.165-44.199 68.365-102.93 68.365-165.293v-1.211c0-30.879-24.2-55.098-53.845-55.098z" fill="#FF5033" style="mix-blend-mode:multiply"/>
</svg>
