<svg width="12" height="14" viewBox="0 0 12 14" fill="none" xmlns="http://www.w3.org/2000/svg">
<path d="M7.07812 3.5886V13.2468C7.07812 13.6456 6.70312 14 6.28125 14H5.71875C5.29688 14 4.92188 13.6456 4.92188 13.2468V3.5886L1.78125 6.55695C1.45312 6.86708 0.984375 6.86708 0.65625 6.55695L0.28125 6.20252C-0.046875 5.89239 -0.046875 5.44936 0.28125 5.13923L5.4375 0.265813C5.76562 -0.0443132 6.23438 -0.0443132 6.5625 0.265813L11.7188 5.13923C12.0469 5.44936 12.0469 5.89239 11.7188 6.20252L11.3438 6.55695C11.0156 6.86708 10.5469 6.86708 10.2188 6.55695L7.07812 3.5886Z" fill="black"/>
</svg>
