<svg width="14" height="12" viewBox="0 0 14 12" fill="none" xmlns="http://www.w3.org/2000/svg">
<path d="M10.4114 7.04297H0.753192C0.354457 7.04297 2.71611e-05 6.66797 2.71611e-05 6.24609V5.68359C2.71611e-05 5.26172 0.354457 4.88672 0.753192 4.88672H10.4114L7.44306 1.74609C7.13294 1.41797 7.13294 0.949219 7.44306 0.621094L7.79749 0.246094C8.10762 -0.0820312 8.55066 -0.0820312 8.86079 0.246094L13.7342 5.40234C14.0443 5.73047 14.0443 6.19922 13.7342 6.52734L8.86079 11.6836C8.55066 12.0117 8.10762 12.0117 7.79749 11.6836L7.44306 11.3086C7.13294 10.9805 7.13294 10.5117 7.44306 10.1836L10.4114 7.04297Z" fill="white"/>
</svg>
