<svg width="103" height="103" fill="none" xmlns="http://www.w3.org/2000/svg">
  <path fill="#026AEA" d="M0 0h103v103H0z"/>
  <path d="M27.0724 63.6369l2.8377 8.7336h9.183l-7.4292 5.3976 2.8377 8.7336-7.4292-5.3977-7.4292 5.3977 2.8377-8.7336-7.4292-5.3976h9.183l2.8377-8.7336zM52.6584 38.051l2.8377 8.7335h9.183l-7.4292 5.3977 2.8377 8.7335-7.4292-5.3976-7.4292 5.3976 2.8377-8.7335-7.4292-5.3977h9.183l2.8377-8.7335zM78.2444 63.6369l2.8377 8.7336h9.183l-7.4292 5.3976 2.8377 8.7336-7.4292-5.3977-7.4292 5.3977 2.8377-8.7336-7.4292-5.3976h9.183l2.8377-8.7336zM27.0724 15.0892l2.8377 8.7335h9.183l-7.4292 5.3977 2.8377 8.7335-7.4292-5.3976-7.4292 5.3976 2.8377-8.7335-7.4292-5.3977h9.183l2.8377-8.7335zM79.5565 15.0892l2.8377 8.7335h9.183l-7.4292 5.3977 2.8377 8.7335-7.4292-5.3976-7.4292 5.3976 2.8377-8.7335-7.4292-5.3977h9.183l2.8377-8.7335z" fill="white"/>
</svg>
