<svg width="12" height="14" viewBox="0 0 12 14" fill="none" xmlns="http://www.w3.org/2000/svg">
<g clip-path="url(#clip0)">
<path d="M7.07812 3.58861V13.2468C7.07812 13.6456 6.70312 14 6.28125 14H5.71875C5.29688 14 4.92188 13.6456 4.92188 13.2468V3.58861L1.78125 6.55697C1.45312 6.86709 0.984375 6.86709 0.65625 6.55697L0.28125 6.20254C-0.046875 5.89241 -0.046875 5.44937 0.28125 5.13925L5.4375 0.265829C5.76562 -0.044298 6.23438 -0.044298 6.5625 0.265829L11.7188 5.13925C12.0469 5.44937 12.0469 5.89241 11.7188 6.20254L11.3438 6.55697C11.0156 6.86709 10.5469 6.86709 10.2188 6.55697L7.07812 3.58861Z" fill="white"/>
</g>
<defs>
<clipPath id="clip0">
<rect width="12" height="14" fill="white"/>
</clipPath>
</defs>
</svg>
